# xmcd
#
# Track frame offsets:
#	150
#	20857
#	39632
#	49550
#	62387
#	78327
#	94072
#	109962
#	131707
#
# Disc length: 1987 seconds
#
# Revision: 1
# Processed by: cddbd v1.5.1PL0 Copyright (c) Steve Scherf et al.
# Submitted via: dBpowerAMP V4.0
#
DISCID=7307c109
DTITLE=James Watkins - Jamaaladeen Tacuma - Intense
DYEAR=1989
DGENRE=Jazz
TTITLE0=I.T.M. (It's The Music)
TTITLE1=Equinox
TTITLE2=Eric D.
TTITLE3=Dad
TTITLE4=Sequence
TTITLE5=Park Avenue
TTITLE6=Say No To Drugs
TTITLE7=Water For The Fish
TTITLE8=Aslas
EXTD=Jamaaladeen Tacuma-b Shawn Scott Jones-b,keys,d prog James Watkins-saxes,keys,b Dennis Alston-d Rich Mazzotta-g Zahfar Abdul Rashied-voc
EXTT0=
EXTT1=
EXTT2=
EXTT3=
EXTT4=
EXTT5=
EXTT6=
EXTT7=
EXTT8=
PLAYORDER=
